<svg id="visual" viewBox="0 0 900 600" width="900" height="600" xmlns="http://www.w3.org/2000/svg" xmlns:xlink="http://www.w3.org/1999/xlink" version="1.1"><path d="M0 211L13.7 203C27.3 195 54.7 179 82 165C109.3 151 136.7 139 163.8 128C191 117 218 107 245.2 111C272.3 115 299.7 133 327 142C354.3 151 381.7 151 409 155C436.3 159 463.7 167 491 193C518.3 219 545.7 263 573 253C600.3 243 627.7 179 654.8 144C682 109 709 103 736.2 97C763.3 91 790.7 85 818 95C845.3 105 872.7 131 886.3 144L900 157L900 0L886.3 0C872.7 0 845.3 0 818 0C790.7 0 763.3 0 736.2 0C709 0 682 0 654.8 0C627.7 0 600.3 0 573 0C545.7 0 518.3 0 491 0C463.7 0 436.3 0 409 0C381.7 0 354.3 0 327 0C299.7 0 272.3 0 245.2 0C218 0 191 0 163.8 0C136.7 0 109.3 0 82 0C54.7 0 27.3 0 13.7 0L0 0Z" fill="#204b98"></path><path d="M0 325L13.7 321C27.3 317 54.7 309 82 285C109.3 261 136.7 221 163.8 208C191 195 218 209 245.2 229C272.3 249 299.7 275 327 274C354.3 273 381.7 245 409 240C436.3 235 463.7 253 491 279C518.3 305 545.7 339 573 342C600.3 345 627.7 317 654.8 288C682 259 709 229 736.2 215C763.3 201 790.7 203 818 206C845.3 209 872.7 213 886.3 215L900 217L900 155L886.3 142C872.7 129 845.3 103 818 93C790.7 83 763.3 89 736.2 95C709 101 682 107 654.8 142C627.7 177 600.3 241 573 251C545.7 261 518.3 217 491 191C463.7 165 436.3 157 409 153C381.7 149 354.3 149 327 140C299.7 131 272.3 113 245.2 109C218 105 191 115 163.8 126C136.7 137 109.3 149 82 163C54.7 177 27.3 193 13.7 201L0 209Z" fill="#113a80"></path><path d="M0 451L13.7 446C27.3 441 54.7 431 82 428C109.3 425 136.7 429 163.8 433C191 437 218 441 245.2 443C272.3 445 299.7 445 327 447C354.3 449 381.7 453 409 450C436.3 447 463.7 437 491 444C518.3 451 545.7 475 573 485C600.3 495 627.7 491 654.8 479C682 467 709 447 736.2 437C763.3 427 790.7 427 818 436C845.3 445 872.7 463 886.3 472L900 481L900 215L886.3 213C872.7 211 845.3 207 818 204C790.7 201 763.3 199 736.2 213C709 227 682 257 654.8 286C627.7 315 600.3 343 573 340C545.7 337 518.3 303 491 277C463.7 251 436.3 233 409 238C381.7 243 354.3 271 327 272C299.7 273 272.3 247 245.2 227C218 207 191 193 163.8 206C136.7 219 109.3 259 82 283C54.7 307 27.3 315 13.7 319L0 323Z" fill="#002a68"></path><path d="M0 541L13.7 536C27.3 531 54.7 521 82 515C109.3 509 136.7 507 163.8 511C191 515 218 525 245.2 532C272.3 539 299.7 543 327 545C354.3 547 381.7 547 409 542C436.3 537 463.7 527 491 528C518.3 529 545.7 541 573 542C600.3 543 627.7 533 654.8 527C682 521 709 519 736.2 513C763.3 507 790.7 497 818 504C845.3 511 872.7 535 886.3 547L900 559L900 479L886.3 470C872.7 461 845.3 443 818 434C790.7 425 763.3 425 736.2 435C709 445 682 465 654.8 477C627.7 489 600.3 493 573 483C545.7 473 518.3 449 491 442C463.7 435 436.3 445 409 448C381.7 451 354.3 447 327 445C299.7 443 272.3 443 245.2 441C218 439 191 435 163.8 431C136.7 427 109.3 423 82 426C54.7 429 27.3 439 13.7 444L0 449Z" fill="#00265a"></path><path d="M0 601L13.7 601C27.3 601 54.7 601 82 601C109.3 601 136.7 601 163.8 601C191 601 218 601 245.2 601C272.3 601 299.7 601 327 601C354.3 601 381.7 601 409 601C436.3 601 463.7 601 491 601C518.3 601 545.7 601 573 601C600.3 601 627.7 601 654.8 601C682 601 709 601 736.2 601C763.3 601 790.7 601 818 601C845.3 601 872.7 601 886.3 601L900 601L900 557L886.3 545C872.7 533 845.3 509 818 502C790.7 495 763.3 505 736.2 511C709 517 682 519 654.8 525C627.7 531 600.3 541 573 540C545.7 539 518.3 527 491 526C463.7 525 436.3 535 409 540C381.7 545 354.3 545 327 543C299.7 541 272.3 537 245.2 530C218 523 191 513 163.8 509C136.7 505 109.3 507 82 513C54.7 519 27.3 529 13.7 534L0 539Z" fill="#00214d"></path></svg>